<svg width="371" height="246" viewBox="0 0 371 246" fill="none" xmlns="http://www.w3.org/2000/svg">
<mask id="mask0_1_21" style="mask-type:luminance" maskUnits="userSpaceOnUse" x="0" y="0" width="371" height="246">
<path d="M370.667 0H0V245.333H370.667V0Z" fill="white"/>
</mask>
<g mask="url(#mask0_1_21)">
<path d="M3.04993 180.7L48.7999 62.9502H82.4458L128.196 180.7H92.0499L85.6541 164.054H45.4458L39.0499 180.7H3.04993ZM52.5083 139.159H78.7583L65.6333 102.659L52.5083 139.159Z" fill="black"/>
<path d="M141.482 180.7V62.9502H195.148C204.674 62.9502 212.883 64.6689 219.773 68.096C226.674 71.5127 232.003 76.3617 235.753 82.6377C239.513 88.9189 241.398 96.4294 241.398 105.179C241.398 113.362 239.716 120.507 236.357 126.617C232.992 132.731 228.174 137.528 221.898 141.013L243.586 180.7H205.065L188.253 147.221H175.461V180.7H141.482ZM174.794 120.138H190.607C195.992 120.138 200.112 118.856 202.961 116.284C205.82 113.7 207.253 110.054 207.253 105.346C207.253 100.638 205.82 97.0231 202.961 94.4919C200.112 91.9658 195.992 90.7002 190.607 90.7002H174.794V120.138Z" fill="black"/>
<path d="M262.59 180.7V62.9502H319.965C332.299 62.9502 342.049 65.8148 349.215 71.5335C356.392 77.2575 359.986 84.9398 359.986 94.5752C359.986 100.19 358.747 105.263 356.278 109.804C353.82 114.346 350.288 117.909 345.695 120.492C351.304 122.95 355.679 126.565 358.82 131.325C361.955 136.091 363.528 141.617 363.528 147.909C363.528 154.299 361.809 159.961 358.382 164.888C354.965 169.82 350.2 173.69 344.09 176.492C337.976 179.299 330.945 180.7 322.986 180.7H262.59ZM295.903 155.471H316.424C320.465 155.471 323.575 154.492 325.757 152.534C327.95 150.565 329.049 147.841 329.049 144.367C329.049 140.898 327.95 138.211 325.757 136.304C323.575 134.388 320.465 133.429 316.424 133.429H295.903V155.471ZM295.903 109.221H313.57C321.747 109.221 325.84 105.69 325.84 98.6169C325.84 91.5492 321.747 88.0127 313.57 88.0127H295.903V109.221Z" fill="black"/>
</g>
</svg>

